<svg width="272" height="61" viewBox="0 0 272 61" fill="none" xmlns="http://www.w3.org/2000/svg">
<path d="M43.4992 50H5.74922C4.89922 50 4.44922 49.55 4.44922 48.65V45.45C4.44922 44.55 4.89922 44.1 5.74922 44.1H33.7992L10.2492 33.05C5.14922 30.65 4.14922 27.9 4.14922 24.3C4.14922 19.85 7.39922 15.9 13.8492 15.9H50.6492C51.5492 15.9 51.9992 16.35 51.9992 17.2V20.4C51.9992 21.3 51.5492 21.75 50.6492 21.75H23.5492L47.0492 32.8C52.1992 35.2 53.1492 37.95 53.1492 41.6C53.1492 46.05 49.8992 50 43.4992 50Z" fill="#FF0000"/>
<path d="M117.954 50H100.904C99.5035 50 98.6035 49.6 97.5535 48.65L80.4535 33.8C79.7535 33.2 79.5035 32.6 79.5035 31.4V29.95C79.5035 28.8 79.7035 28.4 80.5035 27.95L100.504 17.2C101.854 16.45 103.204 15.9 104.804 15.9H114.904C115.604 15.9 115.954 16.3 115.954 16.75C115.954 17.1 115.754 17.4 115.354 17.6L95.5035 28.25L118.704 47.75C119.204 48.15 119.404 48.6 119.404 49C119.404 49.55 118.954 50 117.954 50ZM75.7535 50H58.5535C57.7035 50 57.2535 49.55 57.2535 48.65V17.2C57.2535 16.35 57.7035 15.9 58.5535 15.9H75.7535C76.6535 15.9 77.1035 16.35 77.1035 17.2V48.65C77.1035 49.55 76.6535 50 75.7535 50ZM167.706 34.35H143.806C142.906 34.35 142.456 33.9 142.456 33.05V29.8C142.456 28.95 142.906 28.5 143.806 28.5H167.706C168.556 28.5 169.006 28.8 169.006 29.4V33.45C169.006 34.05 168.556 34.35 167.706 34.35ZM168.206 50H133.106C123.656 50 116.706 42.85 116.706 32.95C116.706 23.15 123.256 15.9 133.106 15.9H168.056C168.956 15.9 169.406 16.35 169.406 17.2V20.4C169.406 21.3 168.956 21.75 168.056 21.75H144.806C140.456 21.75 138.906 23.4 138.906 29.55V35C138.906 41.8 140.706 44.1 144.806 44.1H168.206C169.106 44.1 169.556 44.55 169.556 45.45V48.65C169.556 49.55 169.106 50 168.206 50ZM242.899 50H240.049C239.099 50 238.349 49.75 237.799 49L222.049 27.75L205.149 49C204.599 49.75 203.899 50 203.099 50H200.199C199.249 50 198.549 49.7 197.949 49L171.999 17.6C171.699 17.3 171.599 17 171.599 16.75C171.599 16.25 171.999 15.9 172.699 15.9H191.899C192.999 15.9 193.849 16.15 194.499 16.9L209.549 35.7L224.699 16.9C225.249 16.15 226.149 15.9 227.249 15.9H230.399C231.499 15.9 232.399 16.15 232.949 16.9L247.949 36.95L263.649 16.9C264.249 16.15 265.099 15.9 266.249 15.9H268.049C268.799 15.9 269.099 16.25 269.099 16.7C269.099 16.95 268.999 17.25 268.799 17.55L244.999 49C244.449 49.75 243.699 50 242.899 50Z" fill="white"/>
<path d="M9.68923 58H4.55523C4.43963 58 4.37843 57.9388 4.37843 57.8164V57.3812C4.37843 57.2588 4.43963 57.1976 4.55523 57.1976H8.37003L5.16723 55.6948C4.47363 55.3684 4.33763 54.9944 4.33763 54.5048C4.33763 53.8996 4.77963 53.3624 5.65683 53.3624H10.6616C10.784 53.3624 10.8452 53.4236 10.8452 53.5392V53.9744C10.8452 54.0968 10.784 54.158 10.6616 54.158H6.97603L10.172 55.6608C10.8724 55.9872 11.0016 56.3612 11.0016 56.8576C11.0016 57.4628 10.5596 58 9.68923 58ZM18.8222 58H16.483C16.3606 58 16.2994 57.9388 16.2994 57.8164V55.8716H14.2594V57.8164C14.2594 57.9388 14.1982 58 14.0826 58H11.7434C11.621 58 11.5598 57.9388 11.5598 57.8164V53.5392C11.5598 53.4236 11.621 53.3624 11.7434 53.3624H14.0826C14.1982 53.3624 14.2594 53.4236 14.2594 53.5392V55.076H16.2994V53.5392C16.2994 53.4236 16.3606 53.3624 16.483 53.3624H18.8222C18.9378 53.3624 18.999 53.4236 18.999 53.5392V57.8164C18.999 57.9388 18.9378 58 18.8222 58ZM27.7655 58H25.4399C25.2699 58 25.1135 57.9456 24.9911 57.8164L22.9443 55.7152C22.8695 55.6404 22.8287 55.586 22.8287 55.4636V55.2528C22.8287 55.1372 22.8831 55.076 23.0055 55.076H23.9371C24.3655 55.076 24.5831 54.906 24.5831 54.6136C24.5831 54.3212 24.3655 54.158 23.9371 54.158H22.4207V57.8164C22.4207 57.9388 22.3595 58 22.2371 58H19.9047C19.7823 58 19.7211 57.9388 19.7211 57.8164V53.5392C19.7211 53.4236 19.7823 53.3624 19.9047 53.3624H25.8479C26.6707 53.3624 27.2895 53.8452 27.2895 54.5456C27.2895 55.314 26.6911 55.7492 25.9635 55.858L27.8403 57.7824C27.8743 57.8096 27.8879 57.8572 27.8879 57.8912C27.8879 57.9456 27.8471 58 27.7655 58ZM34.7892 55.8716H31.5388C31.4164 55.8716 31.3552 55.8104 31.3552 55.6948V55.2528C31.3552 55.1372 31.4164 55.076 31.5388 55.076H34.7892C34.9048 55.076 34.966 55.1168 34.966 55.1984V55.7492C34.966 55.8308 34.9048 55.8716 34.7892 55.8716ZM34.8572 58H30.0836C28.7984 58 27.8532 57.0276 27.8532 55.6812C27.8532 54.3484 28.744 53.3624 30.0836 53.3624H34.8368C34.9592 53.3624 35.0204 53.4236 35.0204 53.5392V53.9744C35.0204 54.0968 34.9592 54.158 34.8368 54.158H31.6748C31.0832 54.158 30.8724 54.3824 30.8724 55.2188V55.96C30.8724 56.8848 31.1172 57.1976 31.6748 57.1976H34.8572C34.9796 57.1976 35.0408 57.2588 35.0408 57.3812V57.8164C35.0408 57.9388 34.9796 58 34.8572 58ZM42.479 55.8716H39.2286C39.1062 55.8716 39.045 55.8104 39.045 55.6948V55.2528C39.045 55.1372 39.1062 55.076 39.2286 55.076H42.479C42.5946 55.076 42.6558 55.1168 42.6558 55.1984V55.7492C42.6558 55.8308 42.5946 55.8716 42.479 55.8716ZM42.547 58H37.7734C36.4882 58 35.543 57.0276 35.543 55.6812C35.543 54.3484 36.4338 53.3624 37.7734 53.3624H42.5266C42.649 53.3624 42.7102 53.4236 42.7102 53.5392V53.9744C42.7102 54.0968 42.649 54.158 42.5266 54.158H39.3646C38.773 54.158 38.5622 54.3824 38.5622 55.2188V55.96C38.5622 56.8848 38.807 57.1976 39.3646 57.1976H42.547C42.6694 57.1976 42.7306 57.2588 42.7306 57.3812V57.8164C42.7306 57.9388 42.6694 58 42.547 58ZM54.001 58H51.6821C51.4917 58 51.3693 57.9456 51.2265 57.8164L48.9009 55.7968C48.8057 55.7152 48.7717 55.6336 48.7717 55.4704V55.2732C48.7717 55.1168 48.7989 55.0624 48.9077 55.0012L51.6277 53.5392C51.8113 53.4372 51.9949 53.3624 52.2125 53.3624H53.5862C53.6813 53.3624 53.729 53.4168 53.729 53.478C53.729 53.5256 53.7017 53.5664 53.6473 53.5936L50.9477 55.042L54.1029 57.694C54.1709 57.7484 54.1981 57.8096 54.1981 57.864C54.1981 57.9388 54.1369 58 54.001 58ZM48.2617 58H45.9225C45.8069 58 45.7457 57.9388 45.7457 57.8164V53.5392C45.7457 53.4236 45.8069 53.3624 45.9225 53.3624H48.2617C48.3841 53.3624 48.4453 53.4236 48.4453 53.5392V57.8164C48.4453 57.9388 48.3841 58 48.2617 58ZM61.8601 58H59.5209C59.3985 58 59.3373 57.9388 59.3373 57.8164V55.8716H57.2973V57.8164C57.2973 57.9388 57.2361 58 57.1205 58H54.7813C54.6589 58 54.5977 57.9388 54.5977 57.8164V53.5392C54.5977 53.4236 54.6589 53.3624 54.7813 53.3624H57.1205C57.2361 53.3624 57.2973 53.4236 57.2973 53.5392V55.076H59.3373V53.5392C59.3373 53.4236 59.3985 53.3624 59.5209 53.3624H61.8601C61.9757 53.3624 62.0369 53.4236 62.0369 53.5392V57.8164C62.0369 57.9388 61.9757 58 61.8601 58ZM71.871 58H69.0218C68.8654 58 68.7566 57.9524 68.6682 57.864L66.0366 55.1372L63.9558 57.1976H67.043C67.1654 57.1976 67.2266 57.2588 67.2266 57.3812V57.8164C67.2266 57.9388 67.1654 58 67.043 58H62.5482C62.4734 58 62.419 57.9524 62.419 57.8844C62.419 57.8572 62.4326 57.8096 62.4734 57.7756L66.737 53.4916C66.8186 53.41 66.9138 53.3624 67.0226 53.3624H67.4714C67.5938 53.3624 67.689 53.41 67.7706 53.4916L71.973 57.762C72.0138 57.8028 72.0274 57.8572 72.0274 57.8912C72.0274 57.9524 71.9798 58 71.871 58ZM75.5853 58H73.1441C73.0557 58 73.0149 57.9728 73.0149 57.9116V54.158H71.0293C70.9409 54.158 70.9001 54.1376 70.9001 54.0832V53.4508C70.9001 53.3896 70.9409 53.3624 71.0293 53.3624H77.7001C77.7885 53.3624 77.8293 53.3896 77.8293 53.4508V54.0832C77.8293 54.1376 77.7885 54.158 77.7001 54.158H75.7077V57.9116C75.7077 57.9728 75.6669 58 75.5853 58ZM83.3654 58H80.5094C78.8366 58 78.1906 57.1704 78.1906 55.8648V53.5392C78.1906 53.4236 78.245 53.3624 78.3674 53.3624H80.9106C81.0262 53.3624 81.0874 53.4236 81.0874 53.5392V55.8648C81.0874 56.6944 81.4274 57.1976 82.1958 57.1976H83.3654C84.1406 57.1976 84.501 56.6944 84.501 55.8648V53.5392C84.501 53.4236 84.5622 53.3624 84.6846 53.3624H85.5006C85.623 53.3624 85.6842 53.4236 85.6842 53.5392V55.8648C85.6842 57.0548 84.9498 58 83.3654 58ZM91.515 58H86.381C86.2654 58 86.2042 57.9388 86.2042 57.8164V57.3812C86.2042 57.2588 86.2654 57.1976 86.381 57.1976H90.1958L86.993 55.6948C86.2994 55.3684 86.1634 54.9944 86.1634 54.5048C86.1634 53.8996 86.6054 53.3624 87.4826 53.3624H92.4874C92.6098 53.3624 92.671 53.4236 92.671 53.5392V53.9744C92.671 54.0968 92.6098 54.158 92.4874 54.158H88.8018L91.9978 55.6608C92.6982 55.9872 92.8274 56.3612 92.8274 56.8576C92.8274 57.4628 92.3854 58 91.515 58ZM100.648 58H98.3088C98.1864 58 98.1252 57.9388 98.1252 57.8164V55.8716H96.0852V57.8164C96.0852 57.9388 96.024 58 95.9084 58H93.5692C93.4468 58 93.3856 57.9388 93.3856 57.8164V53.5392C93.3856 53.4236 93.4468 53.3624 93.5692 53.3624H95.9084C96.024 53.3624 96.0852 53.4236 96.0852 53.5392V55.076H98.1252V53.5392C98.1252 53.4236 98.1864 53.3624 98.3088 53.3624H100.648C100.764 53.3624 100.825 53.4236 100.825 53.5392V57.8164C100.825 57.9388 100.764 58 100.648 58ZM106.225 58H103.886C103.771 58 103.709 57.9388 103.709 57.8164V56.198L101.268 53.5936C101.227 53.5528 101.207 53.512 101.207 53.4712C101.207 53.4032 101.275 53.3624 101.343 53.3624H104.083C104.206 53.3624 104.308 53.41 104.389 53.4984L106.198 55.484L108.082 53.4916C108.177 53.3896 108.245 53.3624 108.381 53.3624H108.775C108.864 53.3624 108.905 53.41 108.905 53.4644C108.905 53.4916 108.891 53.5324 108.871 53.5528L106.409 56.1572V57.8164C106.409 57.9388 106.348 58 106.225 58ZM116.981 58H114.132C113.975 58 113.866 57.9524 113.778 57.864L111.146 55.1372L109.066 57.1976H112.153C112.275 57.1976 112.336 57.2588 112.336 57.3812V57.8164C112.336 57.9388 112.275 58 112.153 58H107.658C107.583 58 107.529 57.9524 107.529 57.8844C107.529 57.8572 107.542 57.8096 107.583 57.7756L111.847 53.4916C111.928 53.41 112.024 53.3624 112.132 53.3624H112.581C112.704 53.3624 112.799 53.41 112.88 53.4916L117.083 57.762C117.124 57.8028 117.137 57.8572 117.137 57.8912C117.137 57.9524 117.09 58 116.981 58ZM126.276 58H124.025C123.903 58 123.841 57.9388 123.841 57.8164V56.096L121.924 57.8164C121.788 57.9456 121.638 58 121.502 58H121.108C120.972 58 120.809 57.9456 120.652 57.8164L118.503 56.096V57.8164C118.503 57.9388 118.442 58 118.32 58H117.687C117.565 58 117.504 57.9388 117.504 57.8164V53.5392C117.504 53.4236 117.565 53.3624 117.687 53.3624H118.272C118.422 53.3624 118.571 53.4236 118.707 53.5392L121.897 56.4224L125.303 53.5392C125.446 53.4168 125.616 53.3624 125.786 53.3624H126.276C126.398 53.3624 126.459 53.4236 126.459 53.5392V57.8164C126.459 57.9388 126.398 58 126.276 58ZM130.961 58H127.071C126.955 58 126.894 57.9388 126.894 57.8164V57.3812C126.894 57.2588 126.955 57.1976 127.071 57.1976H129.186C129.784 57.1976 129.988 56.9052 129.988 56.198V53.5392C129.988 53.4236 130.049 53.3624 130.172 53.3624H132.776C132.899 53.3624 132.953 53.4236 132.953 53.5392V56.0824C132.953 57.1976 132.314 58 130.961 58ZM136.178 58H133.832C133.716 58 133.655 57.9388 133.655 57.8164V53.5392C133.655 53.4236 133.716 53.3624 133.832 53.3624H136.178C136.294 53.3624 136.355 53.4236 136.355 53.5392V57.8164C136.355 57.9388 136.294 58 136.178 58ZM146.325 55.8716H143.075C142.952 55.8716 142.891 55.8104 142.891 55.6948V55.2528C142.891 55.1372 142.952 55.076 143.075 55.076H146.325C146.441 55.076 146.502 55.1168 146.502 55.1984V55.7492C146.502 55.8308 146.441 55.8716 146.325 55.8716ZM146.393 58H141.62C140.334 58 139.389 57.0276 139.389 55.6812C139.389 54.3484 140.28 53.3624 141.62 53.3624H146.373C146.495 53.3624 146.556 53.4236 146.556 53.5392V53.9744C146.556 54.0968 146.495 54.158 146.373 54.158H143.211C142.619 54.158 142.408 54.3824 142.408 55.2188V55.96C142.408 56.8848 142.653 57.1976 143.211 57.1976H146.393C146.516 57.1976 146.577 57.2588 146.577 57.3812V57.8164C146.577 57.9388 146.516 58 146.393 58ZM155.035 58H154.566C154.294 58 154.131 57.9728 153.831 57.864L148.412 55.8376V57.8164C148.412 57.9388 148.351 58 148.228 58H147.351C147.229 58 147.167 57.9388 147.167 57.8164V53.5392C147.167 53.4236 147.229 53.3624 147.351 53.3624H148.187C148.487 53.3624 148.623 53.376 148.915 53.4916L153.974 55.4432V53.5392C153.974 53.4236 154.035 53.3624 154.158 53.3624H155.035C155.157 53.3624 155.219 53.4236 155.219 53.5392V57.8164C155.219 57.9388 155.157 58 155.035 58ZM162.945 58H158.029C156.743 58 155.798 57.0276 155.798 55.6812C155.798 54.3484 156.689 53.3624 158.029 53.3624H162.768C162.891 53.3624 162.952 53.4236 162.952 53.5392V53.9744C162.952 54.0968 162.891 54.158 162.768 54.158H159.62C159.028 54.158 158.817 54.3824 158.817 55.2188V55.96C158.817 56.8848 159.062 57.1976 159.62 57.1976H160.823V55.1168C160.823 54.9944 160.885 54.9332 161 54.9332H162.945C163.067 54.9332 163.129 54.9944 163.129 55.1168V57.8164C163.129 57.9388 163.067 58 162.945 58ZM166.439 58H164.093C163.978 58 163.916 57.9388 163.916 57.8164V53.5392C163.916 53.4236 163.978 53.3624 164.093 53.3624H166.439C166.555 53.3624 166.616 53.4236 166.616 53.5392V57.8164C166.616 57.9388 166.555 58 166.439 58ZM175.209 58H174.74C174.468 58 174.305 57.9728 174.006 57.864L168.586 55.8376V57.8164C168.586 57.9388 168.525 58 168.402 58H167.525C167.403 58 167.342 57.9388 167.342 57.8164V53.5392C167.342 53.4236 167.403 53.3624 167.525 53.3624H168.362C168.661 53.3624 168.797 53.376 169.089 53.4916L174.148 55.4432V53.5392C174.148 53.4236 174.21 53.3624 174.332 53.3624H175.209C175.332 53.3624 175.393 53.4236 175.393 53.5392V57.8164C175.393 57.9388 175.332 58 175.209 58ZM182.908 55.8716H179.658C179.536 55.8716 179.474 55.8104 179.474 55.6948V55.2528C179.474 55.1372 179.536 55.076 179.658 55.076H182.908C183.024 55.076 183.085 55.1168 183.085 55.1984V55.7492C183.085 55.8308 183.024 55.8716 182.908 55.8716ZM182.976 58H178.203C176.918 58 175.972 57.0276 175.972 55.6812C175.972 54.3484 176.863 53.3624 178.203 53.3624H182.956C183.078 53.3624 183.14 53.4236 183.14 53.5392V53.9744C183.14 54.0968 183.078 54.158 182.956 54.158H179.794C179.202 54.158 178.992 54.3824 178.992 55.2188V55.96C178.992 56.8848 179.236 57.1976 179.794 57.1976H182.976C183.099 57.1976 183.16 57.2588 183.16 57.3812V57.8164C183.16 57.9388 183.099 58 182.976 58ZM190.598 55.8716H187.348C187.225 55.8716 187.164 55.8104 187.164 55.6948V55.2528C187.164 55.1372 187.225 55.076 187.348 55.076H190.598C190.714 55.076 190.775 55.1168 190.775 55.1984V55.7492C190.775 55.8308 190.714 55.8716 190.598 55.8716ZM190.666 58H185.893C184.607 58 183.662 57.0276 183.662 55.6812C183.662 54.3484 184.553 53.3624 185.893 53.3624H190.646C190.768 53.3624 190.829 53.4236 190.829 53.5392V53.9744C190.829 54.0968 190.768 54.158 190.646 54.158H187.484C186.892 54.158 186.681 54.3824 186.681 55.2188V55.96C186.681 56.8848 186.926 57.1976 187.484 57.1976H190.666C190.789 57.1976 190.85 57.2588 190.85 57.3812V57.8164C190.85 57.9388 190.789 58 190.666 58ZM199.512 58H197.186C197.016 58 196.86 57.9456 196.738 57.8164L194.691 55.7152C194.616 55.6404 194.575 55.586 194.575 55.4636V55.2528C194.575 55.1372 194.63 55.076 194.752 55.076H195.684C196.112 55.076 196.33 54.906 196.33 54.6136C196.33 54.3212 196.112 54.158 195.684 54.158H194.167V57.8164C194.167 57.9388 194.106 58 193.984 58H191.651C191.529 58 191.468 57.9388 191.468 57.8164V53.5392C191.468 53.4236 191.529 53.3624 191.651 53.3624H197.594C198.417 53.3624 199.036 53.8452 199.036 54.5456C199.036 55.314 198.438 55.7492 197.71 55.858L199.587 57.7824C199.621 57.8096 199.634 57.8572 199.634 57.8912C199.634 57.9456 199.594 58 199.512 58ZM202.611 58H200.265C200.149 58 200.088 57.9388 200.088 57.8164V53.5392C200.088 53.4236 200.149 53.3624 200.265 53.3624H202.611C202.726 53.3624 202.788 53.4236 202.788 53.5392V57.8164C202.788 57.9388 202.726 58 202.611 58ZM211.381 58H210.911C210.639 58 210.476 57.9728 210.177 57.864L204.757 55.8376V57.8164C204.757 57.9388 204.696 58 204.574 58H203.697C203.574 58 203.513 57.9388 203.513 57.8164V53.5392C203.513 53.4236 203.574 53.3624 203.697 53.3624H204.533C204.832 53.3624 204.968 53.376 205.261 53.4916L210.32 55.4432V53.5392C210.32 53.4236 210.381 53.3624 210.503 53.3624H211.381C211.503 53.3624 211.564 53.4236 211.564 53.5392V57.8164C211.564 57.9388 211.503 58 211.381 58ZM219.291 58H214.374C213.089 58 212.144 57.0276 212.144 55.6812C212.144 54.3484 213.035 53.3624 214.374 53.3624H219.114C219.236 53.3624 219.297 53.4236 219.297 53.5392V53.9744C219.297 54.0968 219.236 54.158 219.114 54.158H215.965C215.374 54.158 215.163 54.3824 215.163 55.2188V55.96C215.163 56.8848 215.408 57.1976 215.965 57.1976H217.169V55.1168C217.169 54.9944 217.23 54.9332 217.346 54.9332H219.291C219.413 54.9332 219.474 54.9944 219.474 55.1168V57.8164C219.474 57.9388 219.413 58 219.291 58ZM231.982 58H231.595C231.465 58 231.363 57.966 231.289 57.864L229.147 54.974L226.848 57.864C226.773 57.966 226.678 58 226.569 58H226.175C226.046 58 225.951 57.9592 225.869 57.864L222.34 53.5936C222.299 53.5528 222.285 53.512 222.285 53.478C222.285 53.41 222.34 53.3624 222.435 53.3624H225.046C225.196 53.3624 225.311 53.3964 225.4 53.4984L227.447 56.0552L229.507 53.4984C229.582 53.3964 229.704 53.3624 229.854 53.3624H230.282C230.432 53.3624 230.554 53.3964 230.629 53.4984L232.669 56.2252L234.804 53.4984C234.886 53.3964 235.001 53.3624 235.158 53.3624H235.403C235.505 53.3624 235.545 53.41 235.545 53.4712C235.545 53.5052 235.532 53.546 235.505 53.5868L232.268 57.864C232.193 57.966 232.091 58 231.982 58ZM240.882 58H237.55C236.224 58 235.313 56.9936 235.313 55.6812C235.313 54.3348 236.204 53.3624 237.55 53.3624H240.882C242.235 53.3624 243.126 54.3552 243.126 55.6812C243.126 56.9868 242.222 58 240.882 58ZM240.413 55.96V55.2188C240.413 54.3824 240.202 54.158 239.611 54.158H238.686C238.149 54.158 237.938 54.396 237.938 55.2188V55.96C237.938 56.878 238.169 57.1976 238.686 57.1976H239.611C240.168 57.1976 240.413 56.8848 240.413 55.96ZM251.767 58H249.442C249.272 58 249.115 57.9456 248.993 57.8164L246.946 55.7152C246.871 55.6404 246.83 55.586 246.83 55.4636V55.2528C246.83 55.1372 246.885 55.076 247.007 55.076H247.939C248.367 55.076 248.585 54.906 248.585 54.6136C248.585 54.3212 248.367 54.158 247.939 54.158H246.422V57.8164C246.422 57.9388 246.361 58 246.239 58H243.906C243.784 58 243.723 57.9388 243.723 57.8164V53.5392C243.723 53.4236 243.784 53.3624 243.906 53.3624H249.85C250.672 53.3624 251.291 53.8452 251.291 54.5456C251.291 55.314 250.693 55.7492 249.965 55.858L251.842 57.7824C251.876 57.8096 251.89 57.8572 251.89 57.8912C251.89 57.9456 251.849 58 251.767 58ZM260.564 58H258.245C258.055 58 257.933 57.9456 257.79 57.8164L255.464 55.7968C255.369 55.7152 255.335 55.6336 255.335 55.4704V55.2732C255.335 55.1168 255.362 55.0624 255.471 55.0012L258.191 53.5392C258.375 53.4372 258.558 53.3624 258.776 53.3624H260.149C260.245 53.3624 260.292 53.4168 260.292 53.478C260.292 53.5256 260.265 53.5664 260.211 53.5936L257.511 55.042L260.666 57.694C260.734 57.7484 260.761 57.8096 260.761 57.864C260.761 57.9388 260.7 58 260.564 58ZM254.825 58H252.486C252.37 58 252.309 57.9388 252.309 57.8164V53.5392C252.309 53.4236 252.37 53.3624 252.486 53.3624H254.825C254.947 53.3624 255.009 53.4236 255.009 53.5392V57.8164C255.009 57.9388 254.947 58 254.825 58ZM266.349 58H261.215C261.1 58 261.039 57.9388 261.039 57.8164V57.3812C261.039 57.2588 261.1 57.1976 261.215 57.1976H265.03L261.827 55.6948C261.134 55.3684 260.998 54.9944 260.998 54.5048C260.998 53.8996 261.44 53.3624 262.317 53.3624H267.322C267.444 53.3624 267.505 53.4236 267.505 53.5392V53.9744C267.505 54.0968 267.444 54.158 267.322 54.158H263.636L266.832 55.6608C267.533 55.9872 267.662 56.3612 267.662 56.8576C267.662 57.4628 267.22 58 266.349 58Z" fill="white"/>
</svg>
